<svg width="12" height="12" viewBox="0 0 12 12" fill="none" xmlns="http://www.w3.org/2000/svg">
<path d="M1.125 0.75V10.5H7.125V9.75H1.875V1.5H5.625V3.75H7.875V4.5H8.625V3.225L8.5125 3.1125L6.2625 0.8625L6.15 0.75H1.125ZM6.375 2.025L7.35 3H6.375V2.025ZM2.625 4.5V5.25H7.125V4.5H2.625ZM9 5.25V6C8.3625 6.1125 7.875 6.6375 7.875 7.3125C7.875 8.0625 8.4375 8.625 9.1875 8.625H9.5625C9.8625 8.625 10.125 8.8875 10.125 9.1875C10.125 9.4875 9.8625 9.75 9.5625 9.75H8.25V10.5H9V11.25H9.75V10.5C10.3875 10.3875 10.875 9.8625 10.875 9.1875C10.875 8.4375 10.3125 7.875 9.5625 7.875H9.1875C8.8875 7.875 8.625 7.6125 8.625 7.3125C8.625 7.0125 8.8875 6.75 9.1875 6.75H10.5V6H9.75V5.25H9ZM2.625 6.375V7.125H5.25V6.375H2.625ZM6 6.375V7.125H7.125V6.375H6ZM2.625 7.875V8.625H5.25V7.875H2.625ZM6 7.875V8.625H7.125V7.875H6Z" fill="#8D8D8D"/>
</svg>
