<svg width="16" height="16" viewBox="0 0 16 16" fill="none" xmlns="http://www.w3.org/2000/svg">
<path opacity="0.4" d="M4.82983 9.8543L6.82526 7.26086L9.10138 9.04881L11.0541 6.52859" stroke="#0E7CE2" stroke-linecap="round" stroke-linejoin="round"/>
<path d="M13.3303 4.08161C14.038 4.08161 14.6118 3.50787 14.6118 2.80014C14.6118 2.09241 14.038 1.51868 13.3303 1.51868C12.6226 1.51868 12.0488 2.09241 12.0488 2.80014C12.0488 3.50787 12.6226 4.08161 13.3303 4.08161Z" stroke="#0E7CE2" stroke-linecap="round" stroke-linejoin="round"/>
<path d="M9.94969 2.08008H5.10453C3.0969 2.08008 1.85205 3.50189 1.85205 5.50952V10.8978C1.85205 12.9054 3.07249 14.3211 5.10453 14.3211H10.8406C12.8482 14.3211 14.0931 12.9054 14.0931 10.8978V6.20517" stroke="#0E7CE2" stroke-linecap="round" stroke-linejoin="round"/>
</svg>
