<svg width="12" height="12" viewBox="0 0 12 12" fill="none" xmlns="http://www.w3.org/2000/svg">
<path d="M7.875 7.5C7.77554 7.5 7.68016 7.53951 7.60983 7.60983C7.53951 7.68016 7.5 7.77554 7.5 7.875C7.5 7.97446 7.53951 8.06984 7.60983 8.14017C7.68016 8.21049 7.77554 8.25 7.875 8.25H9.375C9.47446 8.25 9.56984 8.21049 9.64017 8.14017C9.71049 8.06984 9.75 7.97446 9.75 7.875C9.75 7.77554 9.71049 7.68016 9.64017 7.60983C9.56984 7.53951 9.47446 7.5 9.375 7.5H7.875ZM0.75 3.75C0.75 3.35218 0.908035 2.97064 1.18934 2.68934C1.47064 2.40804 1.85218 2.25 2.25 2.25H9.75C10.1478 2.25 10.5294 2.40804 10.8107 2.68934C11.092 2.97064 11.25 3.35218 11.25 3.75V8.25C11.25 8.64782 11.092 9.02936 10.8107 9.31066C10.5294 9.59196 10.1478 9.75 9.75 9.75H2.25C1.85218 9.75 1.47064 9.59196 1.18934 9.31066C0.908035 9.02936 0.75 8.64782 0.75 8.25V3.75ZM10.5 3.75C10.5 3.55109 10.421 3.36032 10.2803 3.21967C10.1397 3.07902 9.94891 3 9.75 3H2.25C2.05109 3 1.86032 3.07902 1.71967 3.21967C1.57902 3.36032 1.5 3.55109 1.5 3.75V4.5H10.5V3.75ZM1.5 8.25C1.5 8.44891 1.57902 8.63968 1.71967 8.78033C1.86032 8.92098 2.05109 9 2.25 9H9.75C9.94891 9 10.1397 8.92098 10.2803 8.78033C10.421 8.63968 10.5 8.44891 10.5 8.25V5.25H1.5V8.25Z" fill="#8D8D8D"/>
</svg>
