<svg width="16" height="16" viewBox="0 0 16 16" fill="none" xmlns="http://www.w3.org/2000/svg">
<path opacity="0.2" d="M13 4.5V11.5C13 11.6326 12.9473 11.7598 12.8536 11.8536C12.7598 11.9473 12.6326 12 12.5 12H11V6.5L8.5 4H5V2.5C5 2.36739 5.05268 2.24021 5.14645 2.14645C5.24021 2.05268 5.36739 2 5.5 2H10.5L13 4.5Z" fill="#8D8D8D"/>
<path d="M13.3562 4.14376L10.8562 1.64376C10.761 1.5509 10.633 1.49926 10.5 1.50001H5.5C5.23478 1.50001 4.98043 1.60536 4.79289 1.7929C4.60536 1.98044 4.5 2.23479 4.5 2.50001V3.50001H3.5C3.23478 3.50001 2.98043 3.60536 2.79289 3.7929C2.60536 3.98044 2.5 4.23479 2.5 4.50001V13.5C2.5 13.7652 2.60536 14.0196 2.79289 14.2071C2.98043 14.3947 3.23478 14.5 3.5 14.5H10.5C10.7652 14.5 11.0196 14.3947 11.2071 14.2071C11.3946 14.0196 11.5 13.7652 11.5 13.5V12.5H12.5C12.7652 12.5 13.0196 12.3947 13.2071 12.2071C13.3946 12.0196 13.5 11.7652 13.5 11.5V4.50001C13.5007 4.36698 13.4491 4.23901 13.3562 4.14376ZM10.5 13.5H3.5V4.50001H8.29375L10.5 6.70626V13.5ZM12.5 11.5H11.5V6.50001C11.5007 6.36698 11.4491 6.23901 11.3562 6.14376L8.85625 3.64376C8.761 3.5509 8.63302 3.49926 8.5 3.50001H5.5V2.50001H10.2937L12.5 4.70626V11.5ZM9 9.50001C9 9.63262 8.94732 9.75979 8.85355 9.85356C8.75979 9.94733 8.63261 10 8.5 10H5.5C5.36739 10 5.24021 9.94733 5.14645 9.85356C5.05268 9.75979 5 9.63262 5 9.50001C5 9.3674 5.05268 9.24022 5.14645 9.14645C5.24021 9.05269 5.36739 9.00001 5.5 9.00001H8.5C8.63261 9.00001 8.75979 9.05269 8.85355 9.14645C8.94732 9.24022 9 9.3674 9 9.50001ZM9 11.5C9 11.6326 8.94732 11.7598 8.85355 11.8536C8.75979 11.9473 8.63261 12 8.5 12H5.5C5.36739 12 5.24021 11.9473 5.14645 11.8536C5.05268 11.7598 5 11.6326 5 11.5C5 11.3674 5.05268 11.2402 5.14645 11.1465C5.24021 11.0527 5.36739 11 5.5 11H8.5C8.63261 11 8.75979 11.0527 8.85355 11.1465C8.94732 11.2402 9 11.3674 9 11.5Z" fill="#8D8D8D"/>
</svg>
