<svg width="12" height="12" viewBox="0 0 12 12" fill="none" xmlns="http://www.w3.org/2000/svg">
<path d="M10.0172 3.85782L7.39219 1.23282C7.32075 1.16317 7.22477 1.12444 7.125 1.12501H2.625C2.42609 1.12501 2.23532 1.20402 2.09467 1.34468C1.95402 1.48533 1.875 1.67609 1.875 1.87501V10.125C1.875 10.3239 1.95402 10.5147 2.09467 10.6553C2.23532 10.796 2.42609 10.875 2.625 10.875H9.375C9.57391 10.875 9.76468 10.796 9.90533 10.6553C10.046 10.5147 10.125 10.3239 10.125 10.125V4.12501C10.1256 4.02524 10.0868 3.92926 10.0172 3.85782V3.85782ZM7.5 2.40469L8.84531 3.75001H7.5V2.40469ZM9.375 10.125H2.625V1.87501H6.75V4.12501C6.75 4.22446 6.78951 4.31984 6.85983 4.39017C6.93016 4.4605 7.02554 4.50001 7.125 4.50001H9.375V10.125ZM7.57969 7.04532C7.65011 7.11642 7.68961 7.21244 7.68961 7.31251C7.68961 7.41257 7.65011 7.5086 7.57969 7.57969L6.26719 8.89219C6.19551 8.9615 6.09971 9.00024 6 9.00024C5.90029 9.00024 5.80449 8.9615 5.73281 8.89219L4.42031 7.57969C4.36051 7.50683 4.32995 7.41433 4.33458 7.32019C4.3392 7.22604 4.37868 7.13699 4.44533 7.07033C4.51198 7.00368 4.60104 6.96421 4.69518 6.95958C4.78933 6.95496 4.88183 6.98552 4.95469 7.04532L5.625 7.72032V5.62501C5.625 5.52555 5.66451 5.43017 5.73484 5.35984C5.80516 5.28951 5.90054 5.25001 6 5.25001C6.09946 5.25001 6.19484 5.28951 6.26517 5.35984C6.33549 5.43017 6.375 5.52555 6.375 5.62501V7.72032L7.04531 7.04532C7.11641 6.9749 7.21243 6.9354 7.3125 6.9354C7.41257 6.9354 7.50859 6.9749 7.57969 7.04532V7.04532Z" fill="#8D8D8D"/>
</svg>
