<svg width="12" height="14" viewBox="0 0 12 14" fill="none" xmlns="http://www.w3.org/2000/svg">
<path d="M6.59999 0.999994C6.59999 0.840864 6.53677 0.688252 6.42425 0.57573C6.31173 0.463208 6.15912 0.399994 5.99999 0.399994C5.84086 0.399994 5.68825 0.463208 5.57573 0.57573C5.4632 0.688252 5.39999 0.840864 5.39999 0.999994V5.79999C5.39999 5.95912 5.4632 6.11174 5.57573 6.22426C5.68825 6.33678 5.84086 6.39999 5.99999 6.39999C6.15912 6.39999 6.31173 6.33678 6.42425 6.22426C6.53677 6.11174 6.59999 5.95912 6.59999 5.79999V0.999994ZM8.99439 2.19999C8.92604 2.1593 8.85028 2.13261 8.77153 2.12147C8.69277 2.11032 8.61258 2.11495 8.53563 2.13508C8.45867 2.15521 8.38649 2.19044 8.32328 2.23872C8.26006 2.287 8.20708 2.34737 8.16741 2.41632C8.12774 2.48526 8.10218 2.56141 8.0922 2.64032C8.08223 2.71924 8.08805 2.79935 8.10932 2.87599C8.13059 2.95264 8.16689 3.02429 8.2161 3.08678C8.26531 3.14927 8.32646 3.20135 8.39599 3.23999C9.31193 3.76721 10.0283 4.58198 10.4339 5.55789C10.8395 6.5338 10.9117 7.61629 10.6392 8.63742C10.3668 9.65854 9.76498 10.5612 8.92714 11.2054C8.08931 11.8495 7.0623 12.1992 6.00546 12.2001C4.94862 12.2009 3.92103 11.853 3.08212 11.2102C2.24321 10.5675 1.63989 9.66582 1.36575 8.64515C1.09161 7.62448 1.16199 6.54187 1.56597 5.56529C1.96994 4.5887 2.68492 3.77274 3.59999 3.24399C3.66828 3.2046 3.72814 3.15214 3.77615 3.08961C3.82416 3.02708 3.85939 2.9557 3.87982 2.87956C3.90024 2.80341 3.90548 2.72399 3.89521 2.64583C3.88495 2.56766 3.85939 2.49228 3.81999 2.42399C3.78059 2.35571 3.72813 2.29585 3.6656 2.24783C3.60307 2.19982 3.5317 2.1646 3.45555 2.14417C3.37941 2.12374 3.29999 2.11851 3.22182 2.12877C3.14365 2.13904 3.06828 2.1646 2.99999 2.20399C1.85581 2.86438 0.961562 3.88392 0.456001 5.10444C-0.0495596 6.32496 -0.13817 7.67821 0.203918 8.95424C0.546007 10.2303 1.29967 11.3577 2.34797 12.1617C3.39626 12.9656 4.68059 13.4011 6.00167 13.4006C7.32275 13.4 8.60673 12.9635 9.65438 12.1587C10.702 11.3539 11.4548 10.2259 11.7959 8.94959C12.1369 7.6733 12.0472 6.32012 11.5407 5.1C11.0342 3.87989 10.1391 2.86106 8.99439 2.20159V2.19999Z" fill="#EB5757"/>
</svg>
